<svg xmlns="http://www.w3.org/2000/svg" width="2000" height="2000"><path d="M1135,874L1151,1113L1284,897Z" fill="#f8f8f8" stroke="#f8f8f8" stroke-width="1.51"/><path d="M1151,1113L1342,1108L1284,897Z" fill="#f6f6f6" stroke="#f6f6f6" stroke-width="1.51"/><path d="M1284,897L1122,679L1135,874Z" fill="#f4f4f4" stroke="#f4f4f4" stroke-width="1.51"/><path d="M863,844L1151,1113L1135,874Z" fill="#fcfcfc" stroke="#fcfcfc" stroke-width="1.51"/><path d="M863,844L952,1207L1151,1113Z" fill="#fdfdfd" stroke="#fdfdfd" stroke-width="1.51"/><path d="M1151,1113L1207,1322L1342,1108Z" fill="#f3f3f3" stroke="#f3f3f3" stroke-width="1.51"/><path d="M1342,1108L1507,1081L1284,897Z" fill="#f3f3f3" stroke="#f3f3f3" stroke-width="1.51"/><path d="M1284,897L1256,631L1122,679Z" fill="#f1f1f1" stroke="#f1f1f1" stroke-width="1.51"/><path d="M1466,1247L1507,1081L1342,1108Z" fill="#eeeeee" stroke="#eeeeee" stroke-width="1.51"/><path d="M952,1207L1207,1322L1151,1113Z" fill="#f6f6f6" stroke="#f6f6f6" stroke-width="1.51"/><path d="M1122,679L863,844L1135,874Z" fill="#f8f8f8" stroke="#f8f8f8" stroke-width="1.51"/><path d="M1541,785L1256,631L1284,897Z" fill="#eeeeee" stroke="#eeeeee" stroke-width="1.51"/><path d="M1207,1322L1466,1247L1342,1108Z" fill="#efefef" stroke="#efefef" stroke-width="1.51"/><path d="M952,1207L1168,1387L1207,1322Z" fill="#f3f3f3" stroke="#f3f3f3" stroke-width="1.51"/><path d="M863,844L858,1187L952,1207Z" fill="#fafafa" stroke="#fafafa" stroke-width="1.51"/><path d="M1207,1322L1397,1473L1466,1247Z" fill="#ebebeb" stroke="#ebebeb" stroke-width="1.51"/><path d="M1148,1487L1168,1387L952,1207Z" fill="#f2f2f2" stroke="#f2f2f2" stroke-width="1.51"/><path d="M1593,853L1541,785L1284,897Z" fill="#ededed" stroke="#ededed" stroke-width="1.51"/><path d="M1507,1081L1593,853L1284,897Z" fill="#f0f0f0" stroke="#f0f0f0" stroke-width="1.51"/><path d="M1650,823L1593,853L1740,1105Z" fill="#eaeaea" stroke="#eaeaea" stroke-width="1.51"/><path d="M1256,631L1263,565L1122,679Z" fill="#eeeeee" stroke="#eeeeee" stroke-width="1.51"/><path d="M1122,679L901,669L863,844Z" fill="#f6f6f6" stroke="#f6f6f6" stroke-width="1.51"/><path d="M1434,429L1263,565L1256,631Z" fill="#e8e8e8" stroke="#e8e8e8" stroke-width="1.51"/><path d="M1066,424L901,669L1122,679Z" fill="#f2f2f2" stroke="#f2f2f2" stroke-width="1.51"/><path d="M995,1615L1148,1487L807,1546Z" fill="#efefef" stroke="#efefef" stroke-width="1.51"/><path d="M863,844L792,1189L858,1187Z" fill="#f8f8f8" stroke="#f8f8f8" stroke-width="1.51"/><path d="M1593,853L1650,823L1541,785Z" fill="#e9e9e9" stroke="#e9e9e9" stroke-width="1.51"/><path d="M1541,785L1434,429L1256,631Z" fill="#e8e8e8" stroke="#e8e8e8" stroke-width="1.51"/><path d="M1740,1105L1593,853L1507,1081Z" fill="#ededed" stroke="#ededed" stroke-width="1.51"/><path d="M1168,1387L1397,1473L1207,1322Z" fill="#ededed" stroke="#ededed" stroke-width="1.51"/><path d="M758,1255L952,1207L858,1187Z" fill="#f4f4f4" stroke="#f4f4f4" stroke-width="1.51"/><path d="M792,1189L758,1255L858,1187Z" fill="#f3f3f3" stroke="#f3f3f3" stroke-width="1.51"/><path d="M553,1303L758,1255L475,1113Z" fill="#ececec" stroke="#ececec" stroke-width="1.51"/><path d="M656,813L792,1189L863,844Z" fill="#f6f6f6" stroke="#f6f6f6" stroke-width="1.51"/><path d="M1148,1487L1397,1473L1168,1387Z" fill="#ececec" stroke="#ececec" stroke-width="1.51"/><path d="M1466,1247L1655,1278L1507,1081Z" fill="#eaeaea" stroke="#eaeaea" stroke-width="1.51"/><path d="M1562,1413L1655,1278L1466,1247Z" fill="#e6e6e6" stroke="#e6e6e6" stroke-width="1.51"/><path d="M1655,1278L1740,1105L1507,1081Z" fill="#e9e9e9" stroke="#e9e9e9" stroke-width="1.51"/><path d="M1397,1473L1562,1413L1466,1247Z" fill="#e7e7e7" stroke="#e7e7e7" stroke-width="1.51"/><path d="M901,669L712,696L863,844Z" fill="#f2f2f2" stroke="#f2f2f2" stroke-width="1.51"/><path d="M631,425L712,696L901,669Z" fill="#ebebeb" stroke="#ebebeb" stroke-width="1.51"/><path d="M712,696L656,813L863,844Z" fill="#f1f1f1" stroke="#f1f1f1" stroke-width="1.51"/><path d="M1263,565L1066,424L1122,679Z" fill="#eeeeee" stroke="#eeeeee" stroke-width="1.51"/><path d="M1182,281L1066,424L1263,565Z" fill="#e9e9e9" stroke="#e9e9e9" stroke-width="1.51"/><path d="M1736,610L1434,429L1541,785Z" fill="#e3e3e3" stroke="#e3e3e3" stroke-width="1.51"/><path d="M1740,1105L1802,1068L1650,823Z" fill="#ebebeb" stroke="#ebebeb" stroke-width="1.51"/><path d="M1650,823L1736,610L1541,785Z" fill="#e5e5e5" stroke="#e5e5e5" stroke-width="1.51"/><path d="M1891,1232L1802,1068L1740,1105Z" fill="#e6e6e6" stroke="#e6e6e6" stroke-width="1.51"/><path d="M1891,1232L1740,1105L1655,1278Z" fill="#e5e5e5" stroke="#e5e5e5" stroke-width="1.51"/><path d="M1066,424L942,404L901,669Z" fill="#efefef" stroke="#efefef" stroke-width="1.51"/><path d="M968,165L942,404L1066,424Z" fill="#ebebeb" stroke="#ebebeb" stroke-width="1.51"/><path d="M807,1546L1148,1487L952,1207Z" fill="#f2f2f2" stroke="#f2f2f2" stroke-width="1.51"/><path d="M1148,1487L1243,1671L1397,1473Z" fill="#e8e8e8" stroke="#e8e8e8" stroke-width="1.51"/><path d="M1924,856L1736,610L1650,823Z" fill="#e4e4e4" stroke="#e4e4e4" stroke-width="1.51"/><path d="M739,1580L807,1546L758,1255Z" fill="#ebebeb" stroke="#ebebeb" stroke-width="1.51"/><path d="M758,1255L807,1546L952,1207Z" fill="#f0f0f0" stroke="#f0f0f0" stroke-width="1.51"/><path d="M995,1615L1243,1671L1148,1487Z" fill="#ebebeb" stroke="#ebebeb" stroke-width="1.51"/><path d="M1397,1473L1652,1509L1562,1413Z" fill="#e3e3e3" stroke="#e3e3e3" stroke-width="1.51"/><path d="M1562,1413L1652,1509L1655,1278Z" fill="#e2e2e2" stroke="#e2e2e2" stroke-width="1.51"/><path d="M1424,1799L1652,1509L1397,1473Z" fill="#e1e1e1" stroke="#e1e1e1" stroke-width="1.51"/><path d="M1434,429L1182,281L1263,565Z" fill="#e6e6e6" stroke="#e6e6e6" stroke-width="1.51"/><path d="M712,696L555,681L656,813Z" fill="#ececec" stroke="#ececec" stroke-width="1.51"/><path d="M475,1113L758,1255L792,1189Z" fill="#f0f0f0" stroke="#f0f0f0" stroke-width="1.51"/><path d="M631,425L555,681L712,696Z" fill="#e8e8e8" stroke="#e8e8e8" stroke-width="1.51"/><path d="M475,1113L792,1189L656,813Z" fill="#f3f3f3" stroke="#f3f3f3" stroke-width="1.51"/><path d="M413,861L475,1113L656,813Z" fill="#eeeeee" stroke="#eeeeee" stroke-width="1.51"/><path d="M995,1615L1005,1695L1243,1671Z" fill="#eaeaea" stroke="#eaeaea" stroke-width="1.51"/><path d="M807,1546L1005,1695L995,1615Z" fill="#ebebeb" stroke="#ebebeb" stroke-width="1.51"/><path d="M1802,1068L1924,856L1650,823Z" fill="#e8e8e8" stroke="#e8e8e8" stroke-width="1.51"/><path d="M1902,1525L1891,1232L1655,1278Z" fill="#e1e1e1" stroke="#e1e1e1" stroke-width="1.51"/><path d="M2104,969L1924,856L1802,1068Z" fill="#e9e9e9" stroke="#e9e9e9" stroke-width="1.51"/><path d="M553,1303L739,1580L758,1255Z" fill="#ebebeb" stroke="#ebebeb" stroke-width="1.51"/><path d="M807,1546L739,1580L1005,1695Z" fill="#e9e9e9" stroke="#e9e9e9" stroke-width="1.51"/><path d="M1434,429L1297,235L1182,281Z" fill="#e2e2e2" stroke="#e2e2e2" stroke-width="1.51"/><path d="M1722,435L1483,297L1434,429Z" fill="#dddddd" stroke="#dddddd" stroke-width="1.51"/><path d="M1483,297L1297,235L1434,429Z" fill="#dfdfdf" stroke="#dfdfdf" stroke-width="1.51"/><path d="M1736,610L1722,435L1434,429Z" fill="#dedede" stroke="#dedede" stroke-width="1.51"/><path d="M1803,411L1722,435L1736,610Z" fill="#dcdcdc" stroke="#dcdcdc" stroke-width="1.51"/><path d="M555,681L413,861L656,813Z" fill="#ebebeb" stroke="#ebebeb" stroke-width="1.51"/><path d="M307,743L335,880L413,861Z" fill="#e7e7e7" stroke="#e7e7e7" stroke-width="1.51"/><path d="M942,404L631,425L901,669Z" fill="#ebebeb" stroke="#ebebeb" stroke-width="1.51"/><path d="M867,230L631,425L942,404Z" fill="#e6e6e6" stroke="#e6e6e6" stroke-width="1.51"/><path d="M867,230L942,404L968,165Z" fill="#e8e8e8" stroke="#e8e8e8" stroke-width="1.51"/><path d="M1924,856L1907,623L1736,610Z" fill="#e1e1e1" stroke="#e1e1e1" stroke-width="1.51"/><path d="M1297,235L1190,179L1182,281Z" fill="#e3e3e3" stroke="#e3e3e3" stroke-width="1.51"/><path d="M1265,56L1190,179L1297,235Z" fill="#e2e2e2" stroke="#e2e2e2" stroke-width="1.51"/><path d="M243,1207L426,1468L553,1303Z" fill="#e4e4e4" stroke="#e4e4e4" stroke-width="1.51"/><path d="M413,861L375,1003L475,1113Z" fill="#eeeeee" stroke="#eeeeee" stroke-width="1.51"/><path d="M968,165L1066,424L1182,281Z" fill="#e8e8e8" stroke="#e8e8e8" stroke-width="1.51"/><path d="M1907,623L1803,411L1736,610Z" fill="#dddddd" stroke="#dddddd" stroke-width="1.51"/><path d="M1722,435L1611,204L1483,297Z" fill="#dadada" stroke="#dadada" stroke-width="1.51"/><path d="M1483,297L1463,127L1297,235Z" fill="#dedede" stroke="#dedede" stroke-width="1.51"/><path d="M1243,1671L1424,1799L1397,1473Z" fill="#e3e3e3" stroke="#e3e3e3" stroke-width="1.51"/><path d="M1652,1509L1902,1525L1655,1278Z" fill="#dedede" stroke="#dedede" stroke-width="1.51"/><path d="M1200,1911L1424,1799L1243,1671Z" fill="#e3e3e3" stroke="#e3e3e3" stroke-width="1.51"/><path d="M553,1303L613,1602L739,1580Z" fill="#e6e6e6" stroke="#e6e6e6" stroke-width="1.51"/><path d="M974,1854L1032,1845L1005,1695Z" fill="#ebebeb" stroke="#ebebeb" stroke-width="1.51"/><path d="M1005,1695L1032,1845L1243,1671Z" fill="#e8e8e8" stroke="#e8e8e8" stroke-width="1.51"/><path d="M426,1468L613,1602L553,1303Z" fill="#e4e4e4" stroke="#e4e4e4" stroke-width="1.51"/><path d="M1190,179L968,165L1182,281Z" fill="#e7e7e7" stroke="#e7e7e7" stroke-width="1.51"/><path d="M413,861L335,880L375,1003Z" fill="#eaeaea" stroke="#eaeaea" stroke-width="1.51"/><path d="M307,743L413,861L555,681Z" fill="#e7e7e7" stroke="#e7e7e7" stroke-width="1.51"/><path d="M974,1854L1005,1695L739,1580Z" fill="#e8e8e8" stroke="#e8e8e8" stroke-width="1.51"/><path d="M631,425L506,431L555,681Z" fill="#e3e3e3" stroke="#e3e3e3" stroke-width="1.51"/><path d="M535,285L506,431L631,425Z" fill="#e0e0e0" stroke="#e0e0e0" stroke-width="1.51"/><path d="M643,214L631,425L867,230Z" fill="#e2e2e2" stroke="#e2e2e2" stroke-width="1.51"/><path d="M1803,1743L1902,1525L1652,1509Z" fill="#dadada" stroke="#dadada" stroke-width="1.51"/><path d="M2137,1084L2104,969L1802,1068Z" fill="#e8e8e8" stroke="#e8e8e8" stroke-width="1.51"/><path d="M1803,411L1611,204L1722,435Z" fill="#d8d8d8" stroke="#d8d8d8" stroke-width="1.51"/><path d="M1190,179L1032,-72L968,165Z" fill="#e7e7e7" stroke="#e7e7e7" stroke-width="1.51"/><path d="M1032,1845L1200,1911L1243,1671Z" fill="#e6e6e6" stroke="#e6e6e6" stroke-width="1.51"/><path d="M583,1744L974,1854L739,1580Z" fill="#e4e4e4" stroke="#e4e4e4" stroke-width="1.51"/><path d="M243,1207L475,1113L375,1003Z" fill="#e9e9e9" stroke="#e9e9e9" stroke-width="1.51"/><path d="M243,1207L553,1303L475,1113Z" fill="#e8e8e8" stroke="#e8e8e8" stroke-width="1.51"/><path d="M1611,204L1463,127L1483,297Z" fill="#dbdbdb" stroke="#dbdbdb" stroke-width="1.51"/><path d="M1924,856L2123,690L1907,623Z" fill="#e1e1e1" stroke="#e1e1e1" stroke-width="1.51"/><path d="M1907,623L1917,394L1803,411Z" fill="#dadada" stroke="#dadada" stroke-width="1.51"/><path d="M2137,1084L1802,1068L1891,1232Z" fill="#e6e6e6" stroke="#e6e6e6" stroke-width="1.51"/><path d="M196,1168L243,1207L375,1003Z" fill="#e7e7e7" stroke="#e7e7e7" stroke-width="1.51"/><path d="M287,545L307,743L555,681Z" fill="#e3e3e3" stroke="#e3e3e3" stroke-width="1.51"/><path d="M1227,2154L1200,1911L1101,2152Z" fill="#e4e4e4" stroke="#e4e4e4" stroke-width="1.51"/><path d="M1463,127L1265,56L1297,235Z" fill="#dfdfdf" stroke="#dfdfdf" stroke-width="1.51"/><path d="M1803,411L1688,111L1611,204Z" fill="#d6d6d6" stroke="#d6d6d6" stroke-width="1.51"/><path d="M2101,528L1917,394L1907,623Z" fill="#dbdbdb" stroke="#dbdbdb" stroke-width="1.51"/><path d="M1738,1799L1803,1743L1652,1509Z" fill="#d8d8d8" stroke="#d8d8d8" stroke-width="1.51"/><path d="M1200,1911L1439,1900L1424,1799Z" fill="#e0e0e0" stroke="#e0e0e0" stroke-width="1.51"/><path d="M2125,1202L2137,1084L1891,1232Z" fill="#e4e4e4" stroke="#e4e4e4" stroke-width="1.51"/><path d="M701,154L643,214L867,230Z" fill="#e1e1e1" stroke="#e1e1e1" stroke-width="1.51"/><path d="M506,431L287,545L555,681Z" fill="#e2e2e2" stroke="#e2e2e2" stroke-width="1.51"/><path d="M701,154L867,230L828,-13Z" fill="#e3e3e3" stroke="#e3e3e3" stroke-width="1.51"/><path d="M2067,1466L2125,1202L1891,1232Z" fill="#e0e0e0" stroke="#e0e0e0" stroke-width="1.51"/><path d="M643,214L535,285L631,425Z" fill="#dfdfdf" stroke="#dfdfdf" stroke-width="1.51"/><path d="M1902,1525L2067,1466L1891,1232Z" fill="#dedede" stroke="#dedede" stroke-width="1.51"/><path d="M1738,1799L1652,1509L1704,1831Z" fill="#d8d8d8" stroke="#d8d8d8" stroke-width="1.51"/><path d="M426,1468L583,1744L613,1602Z" fill="#e0e0e0" stroke="#e0e0e0" stroke-width="1.51"/><path d="M613,1602L583,1744L739,1580Z" fill="#e2e2e2" stroke="#e2e2e2" stroke-width="1.51"/><path d="M643,214L568,88L535,285Z" fill="#dddddd" stroke="#dddddd" stroke-width="1.51"/><path d="M828,-13L867,230L968,165Z" fill="#e5e5e5" stroke="#e5e5e5" stroke-width="1.51"/><path d="M186,916L375,1003L335,880Z" fill="#e8e8e8" stroke="#e8e8e8" stroke-width="1.51"/><path d="M364,1853L544,1845L583,1744Z" fill="#dbdbdb" stroke="#dbdbdb" stroke-width="1.51"/><path d="M1704,1831L1652,1509L1424,1799Z" fill="#dbdbdb" stroke="#dbdbdb" stroke-width="1.51"/><path d="M2104,969L2123,690L1924,856Z" fill="#e4e4e4" stroke="#e4e4e4" stroke-width="1.51"/><path d="M2307,897L2123,690L2104,969Z" fill="#e3e3e3" stroke="#e3e3e3" stroke-width="1.51"/><path d="M1439,1900L1704,1831L1424,1799Z" fill="#dcdcdc" stroke="#dcdcdc" stroke-width="1.51"/><path d="M1738,1799L1823,1899L1803,1743Z" fill="#d6d6d6" stroke="#d6d6d6" stroke-width="1.51"/><path d="M2111,1627L2067,1466L1902,1525Z" fill="#dadada" stroke="#dadada" stroke-width="1.51"/><path d="M1463,127L1352,-97L1265,56Z" fill="#dedede" stroke="#dedede" stroke-width="1.51"/><path d="M1611,204L1688,111L1463,127Z" fill="#d9d9d9" stroke="#d9d9d9" stroke-width="1.51"/><path d="M1917,394L1688,111L1803,411Z" fill="#d6d6d6" stroke="#d6d6d6" stroke-width="1.51"/><path d="M249,211L287,545L506,431Z" fill="#dadada" stroke="#dadada" stroke-width="1.51"/><path d="M307,743L186,916L335,880Z" fill="#e6e6e6" stroke="#e6e6e6" stroke-width="1.51"/><path d="M17,797L186,916L307,743Z" fill="#e4e4e4" stroke="#e4e4e4" stroke-width="1.51"/><path d="M243,1207L240,1462L426,1468Z" fill="#e0e0e0" stroke="#e0e0e0" stroke-width="1.51"/><path d="M186,916L196,1168L375,1003Z" fill="#e9e9e9" stroke="#e9e9e9" stroke-width="1.51"/><path d="M1962,49L1881,-11L1688,111Z" fill="#d4d4d4" stroke="#d4d4d4" stroke-width="1.51"/><path d="M2123,690L2101,528L1907,623Z" fill="#dddddd" stroke="#dddddd" stroke-width="1.51"/><path d="M121,1290L240,1462L243,1207Z" fill="#e0e0e0" stroke="#e0e0e0" stroke-width="1.51"/><path d="M701,154L568,88L643,214Z" fill="#dfdfdf" stroke="#dfdfdf" stroke-width="1.51"/><path d="M1032,-72L828,-13L968,165Z" fill="#e7e7e7" stroke="#e7e7e7" stroke-width="1.51"/><path d="M1032,-72L1190,179L1265,56Z" fill="#e4e4e4" stroke="#e4e4e4" stroke-width="1.51"/><path d="M364,1853L583,1744L263,1788Z" fill="#d9d9d9" stroke="#d9d9d9" stroke-width="1.51"/><path d="M717,1994L821,2009L974,1854Z" fill="#e4e4e4" stroke="#e4e4e4" stroke-width="1.51"/><path d="M1101,2152L1200,1911L1032,1845Z" fill="#e6e6e6" stroke="#e6e6e6" stroke-width="1.51"/><path d="M1352,-97L1032,-72L1265,56Z" fill="#e2e2e2" stroke="#e2e2e2" stroke-width="1.51"/><path d="M717,1994L974,1854L583,1744Z" fill="#e3e3e3" stroke="#e3e3e3" stroke-width="1.51"/><path d="M1200,1911L1227,2154L1439,1900Z" fill="#e1e1e1" stroke="#e1e1e1" stroke-width="1.51"/><path d="M617,-61L568,88L701,154Z" fill="#dddddd" stroke="#dddddd" stroke-width="1.51"/><path d="M535,285L249,211L506,431Z" fill="#dadada" stroke="#dadada" stroke-width="1.51"/><path d="M1561,-164L1352,-97L1463,127Z" fill="#dbdbdb" stroke="#dbdbdb" stroke-width="1.51"/><path d="M1674,2114L1823,1899L1704,1831Z" fill="#d6d6d6" stroke="#d6d6d6" stroke-width="1.51"/><path d="M1704,1831L1823,1899L1738,1799Z" fill="#d6d6d6" stroke="#d6d6d6" stroke-width="1.51"/><path d="M1803,1743L2111,1627L1902,1525Z" fill="#d8d8d8" stroke="#d8d8d8" stroke-width="1.51"/><path d="M1576,2093L1704,1831L1439,1900Z" fill="#dadada" stroke="#dadada" stroke-width="1.51"/><path d="M544,1845L717,1994L583,1744Z" fill="#dfdfdf" stroke="#dfdfdf" stroke-width="1.51"/><path d="M196,1168L121,1290L243,1207Z" fill="#e3e3e3" stroke="#e3e3e3" stroke-width="1.51"/><path d="M-131,1265L121,1290L-169,1073Z" fill="#e1e1e1" stroke="#e1e1e1" stroke-width="1.51"/><path d="M1823,1899L2111,1627L1803,1743Z" fill="#d6d6d6" stroke="#d6d6d6" stroke-width="1.51"/><path d="M2067,1466L2289,1262L2125,1202Z" fill="#dfdfdf" stroke="#dfdfdf" stroke-width="1.51"/><path d="M2374,1073L2307,897L2137,1084Z" fill="#e7e7e7" stroke="#e7e7e7" stroke-width="1.51"/><path d="M2123,690L2234,528L2101,528Z" fill="#dcdcdc" stroke="#dcdcdc" stroke-width="1.51"/><path d="M2137,1084L2307,897L2104,969Z" fill="#e7e7e7" stroke="#e7e7e7" stroke-width="1.51"/><path d="M2289,1262L2137,1084L2125,1202Z" fill="#e3e3e3" stroke="#e3e3e3" stroke-width="1.51"/><path d="M2398,1454L2289,1262L2067,1466Z" fill="#dcdcdc" stroke="#dcdcdc" stroke-width="1.51"/><path d="M2101,528L2117,309L1917,394Z" fill="#d7d7d7" stroke="#d7d7d7" stroke-width="1.51"/><path d="M2281,613L2234,528L2123,690Z" fill="#dcdcdc" stroke="#dcdcdc" stroke-width="1.51"/><path d="M2208,388L2117,309L2101,528Z" fill="#d7d7d7" stroke="#d7d7d7" stroke-width="1.51"/><path d="M1688,111L1660,-126L1463,127Z" fill="#d7d7d7" stroke="#d7d7d7" stroke-width="1.51"/><path d="M2307,897L2281,613L2123,690Z" fill="#dfdfdf" stroke="#dfdfdf" stroke-width="1.51"/><path d="M2234,528L2208,388L2101,528Z" fill="#d8d8d8" stroke="#d8d8d8" stroke-width="1.51"/><path d="M1101,2152L974,1854L821,2009Z" fill="#e8e8e8" stroke="#e8e8e8" stroke-width="1.51"/><path d="M1101,2152L1032,1845L974,1854Z" fill="#e8e8e8" stroke="#e8e8e8" stroke-width="1.51"/><path d="M979,2314L1101,2152L821,2009Z" fill="#e7e7e7" stroke="#e7e7e7" stroke-width="1.51"/><path d="M1227,2154L1576,2093L1439,1900Z" fill="#dddddd" stroke="#dddddd" stroke-width="1.51"/><path d="M2281,613L2208,388L2234,528Z" fill="#d9d9d9" stroke="#d9d9d9" stroke-width="1.51"/><path d="M544,1845L554,2008L717,1994Z" fill="#dedede" stroke="#dedede" stroke-width="1.51"/><path d="M240,1462L193,1618L426,1468Z" fill="#dcdcdc" stroke="#dcdcdc" stroke-width="1.51"/><path d="M85,1531L193,1618L240,1462Z" fill="#dadada" stroke="#dadada" stroke-width="1.51"/><path d="M2289,1262L2374,1073L2137,1084Z" fill="#e3e3e3" stroke="#e3e3e3" stroke-width="1.51"/><path d="M2307,897L2374,1073L2281,613Z" fill="#e3e3e3" stroke="#e3e3e3" stroke-width="1.51"/><path d="M186,916L-54,957L196,1168Z" fill="#e8e8e8" stroke="#e8e8e8" stroke-width="1.51"/><path d="M287,545L17,797L307,743Z" fill="#e0e0e0" stroke="#e0e0e0" stroke-width="1.51"/><path d="M-81,501L17,797L287,545Z" fill="#dddddd" stroke="#dddddd" stroke-width="1.51"/><path d="M263,1788L583,1744L426,1468Z" fill="#dbdbdb" stroke="#dbdbdb" stroke-width="1.51"/><path d="M717,1994L601,2177L821,2009Z" fill="#e0e0e0" stroke="#e0e0e0" stroke-width="1.51"/><path d="M253,191L249,211L535,285Z" fill="#d7d7d7" stroke="#d7d7d7" stroke-width="1.51"/><path d="M828,-13L617,-61L701,154Z" fill="#e0e0e0" stroke="#e0e0e0" stroke-width="1.51"/><path d="M697,-252L617,-61L828,-13Z" fill="#dfdfdf" stroke="#dfdfdf" stroke-width="1.51"/><path d="M697,-252L828,-13L1032,-72Z" fill="#e3e3e3" stroke="#e3e3e3" stroke-width="1.51"/><path d="M364,1853L554,2008L544,1845Z" fill="#dbdbdb" stroke="#dbdbdb" stroke-width="1.51"/><path d="M1688,111L1917,394L1962,49Z" fill="#d5d5d5" stroke="#d5d5d5" stroke-width="1.51"/><path d="M1881,-11L1660,-126L1688,111Z" fill="#d4d4d4" stroke="#d4d4d4" stroke-width="1.51"/><path d="M1352,-97L1048,-308L1032,-72Z" fill="#e3e3e3" stroke="#e3e3e3" stroke-width="1.51"/><path d="M1660,-126L1561,-164L1463,127Z" fill="#d8d8d8" stroke="#d8d8d8" stroke-width="1.51"/><path d="M1962,49L1917,394L2117,309Z" fill="#d4d4d4" stroke="#d4d4d4" stroke-width="1.51"/><path d="M2018,0L1962,49L2117,309Z" fill="#d3d3d3" stroke="#d3d3d3" stroke-width="1.51"/><path d="M1576,2093L1674,2114L1704,1831Z" fill="#d7d7d7" stroke="#d7d7d7" stroke-width="1.51"/><path d="M2220,1886L2298,1742L2111,1627Z" fill="#d4d4d4" stroke="#d4d4d4" stroke-width="1.51"/><path d="M1654,2293L1674,2114L1576,2093Z" fill="#d6d6d6" stroke="#d6d6d6" stroke-width="1.51"/><path d="M253,191L535,285L568,88Z" fill="#d9d9d9" stroke="#d9d9d9" stroke-width="1.51"/><path d="M276,2160L601,2177L554,2008Z" fill="#d9d9d9" stroke="#d9d9d9" stroke-width="1.51"/><path d="M193,1618L263,1788L426,1468Z" fill="#d9d9d9" stroke="#d9d9d9" stroke-width="1.51"/><path d="M193,1618L-40,1861L263,1788Z" fill="#d5d5d5" stroke="#d5d5d5" stroke-width="1.51"/><path d="M121,1290L85,1531L240,1462Z" fill="#dddddd" stroke="#dddddd" stroke-width="1.51"/><path d="M-8,1536L85,1531L121,1290Z" fill="#dcdcdc" stroke="#dcdcdc" stroke-width="1.51"/><path d="M249,211L57,403L287,545Z" fill="#d7d7d7" stroke="#d7d7d7" stroke-width="1.51"/><path d="M470,-54L253,191L568,88Z" fill="#d8d8d8" stroke="#d8d8d8" stroke-width="1.51"/><path d="M17,797L-54,957L186,916Z" fill="#e5e5e5" stroke="#e5e5e5" stroke-width="1.51"/><path d="M-125,767L-54,957L17,797Z" fill="#e3e3e3" stroke="#e3e3e3" stroke-width="1.51"/><path d="M1227,2154L1459,2275L1576,2093Z" fill="#dcdcdc" stroke="#dcdcdc" stroke-width="1.51"/><path d="M1101,2152L1256,2250L1227,2154Z" fill="#e2e2e2" stroke="#e2e2e2" stroke-width="1.51"/><path d="M1004,2333L1256,2250L1101,2152Z" fill="#e4e4e4" stroke="#e4e4e4" stroke-width="1.51"/><path d="M617,-61L470,-54L568,88Z" fill="#dbdbdb" stroke="#dbdbdb" stroke-width="1.51"/><path d="M697,-252L470,-54L617,-61Z" fill="#dbdbdb" stroke="#dbdbdb" stroke-width="1.51"/><path d="M58,308L57,403L249,211Z" fill="#d4d4d4" stroke="#d4d4d4" stroke-width="1.51"/><path d="M58,308L249,211L60,47Z" fill="#d3d3d3" stroke="#d3d3d3" stroke-width="1.51"/><path d="M2054,-44L2018,0L2271,43Z" fill="#d1d1d1" stroke="#d1d1d1" stroke-width="1.51"/><path d="M1962,49L2018,0L1881,-11Z" fill="#d2d2d2" stroke="#d2d2d2" stroke-width="1.51"/><path d="M1881,-11L1761,-367L1660,-126Z" fill="#d3d3d3" stroke="#d3d3d3" stroke-width="1.51"/><path d="M1581,-380L1360,-339L1561,-164Z" fill="#d8d8d8" stroke="#d8d8d8" stroke-width="1.51"/><path d="M2289,1262L2398,1454L2374,1073Z" fill="#dfdfdf" stroke="#dfdfdf" stroke-width="1.51"/><path d="M2111,1627L2398,1454L2067,1466Z" fill="#d9d9d9" stroke="#d9d9d9" stroke-width="1.51"/><path d="M2298,1742L2398,1454L2111,1627Z" fill="#d6d6d6" stroke="#d6d6d6" stroke-width="1.51"/><path d="M1360,-339L1048,-308L1352,-97Z" fill="#dfdfdf" stroke="#dfdfdf" stroke-width="1.51"/><path d="M1256,2250L1459,2275L1227,2154Z" fill="#dedede" stroke="#dedede" stroke-width="1.51"/><path d="M85,1531L-8,1536L193,1618Z" fill="#d9d9d9" stroke="#d9d9d9" stroke-width="1.51"/><path d="M-131,1265L-8,1536L121,1290Z" fill="#dedede" stroke="#dedede" stroke-width="1.51"/><path d="M-81,501L-125,767L17,797Z" fill="#dedede" stroke="#dedede" stroke-width="1.51"/><path d="M60,47L249,211L253,191Z" fill="#d4d4d4" stroke="#d4d4d4" stroke-width="1.51"/><path d="M554,2008L601,2177L717,1994Z" fill="#dedede" stroke="#dedede" stroke-width="1.51"/><path d="M1256,2250L1004,2333L1459,2275Z" fill="#e1e1e1" stroke="#e1e1e1" stroke-width="1.51"/><path d="M276,2160L554,2008L364,1853Z" fill="#d8d8d8" stroke="#d8d8d8" stroke-width="1.51"/><path d="M276,2160L364,1853L263,1788Z" fill="#d5d5d5" stroke="#d5d5d5" stroke-width="1.51"/><path d="M1654,2293L1841,2158L1674,2114Z" fill="#d4d4d4" stroke="#d4d4d4" stroke-width="1.51"/><path d="M1674,2114L1841,2158L1823,1899Z" fill="#d5d5d5" stroke="#d5d5d5" stroke-width="1.51"/><path d="M2220,1886L2111,1627L1823,1899Z" fill="#d5d5d5" stroke="#d5d5d5" stroke-width="1.51"/><path d="M-169,1073L121,1290L196,1168Z" fill="#e3e3e3" stroke="#e3e3e3" stroke-width="1.51"/><path d="M-81,501L287,545L57,403Z" fill="#dadada" stroke="#dadada" stroke-width="1.51"/><path d="M1048,-308L697,-252L1032,-72Z" fill="#e4e4e4" stroke="#e4e4e4" stroke-width="1.51"/><path d="M1581,-380L1561,-164L1660,-126Z" fill="#d5d5d5" stroke="#d5d5d5" stroke-width="1.51"/><path d="M1561,-164L1360,-339L1352,-97Z" fill="#dadada" stroke="#dadada" stroke-width="1.51"/><path d="M601,2177L979,2314L821,2009Z" fill="#e2e2e2" stroke="#e2e2e2" stroke-width="1.51"/><path d="M2018,0L2054,-44L1881,-11Z" fill="#d2d2d2" stroke="#d2d2d2" stroke-width="1.51"/><path d="M2271,43L2018,0L2117,309Z" fill="#d2d2d2" stroke="#d2d2d2" stroke-width="1.51"/><path d="M-169,1073L196,1168L-54,957Z" fill="#e6e6e6" stroke="#e6e6e6" stroke-width="1.51"/><path d="M979,2314L1004,2333L1101,2152Z" fill="#e6e6e6" stroke="#e6e6e6" stroke-width="1.51"/><path d="M615,2380L1004,2333L979,2314Z" fill="#e3e3e3" stroke="#e3e3e3" stroke-width="1.51"/><path d="M2198,1984L2220,1886L1823,1899Z" fill="#d4d4d4" stroke="#d4d4d4" stroke-width="1.51"/><path d="M-347,941L-169,1073L-54,957Z" fill="#e6e6e6" stroke="#e6e6e6" stroke-width="1.51"/><path d="M-137,394L-81,501L57,403Z" fill="#d7d7d7" stroke="#d7d7d7" stroke-width="1.51"/><path d="M2075,2109L2198,1984L1823,1899Z" fill="#d3d3d3" stroke="#d3d3d3" stroke-width="1.51"/><path d="M1459,2275L1654,2293L1576,2093Z" fill="#d8d8d8" stroke="#d8d8d8" stroke-width="1.51"/><path d="M1004,2333L1654,2293L1459,2275Z" fill="#dcdcdc" stroke="#dcdcdc" stroke-width="1.51"/><path d="M530,-395L366,-127L470,-54Z" fill="#d6d6d6" stroke="#d6d6d6" stroke-width="1.51"/><path d="M470,-54L366,-127L253,191Z" fill="#d5d5d5" stroke="#d5d5d5" stroke-width="1.51"/><path d="M58,308L-137,394L57,403Z" fill="#d5d5d5" stroke="#d5d5d5" stroke-width="1.51"/><path d="M530,-395L299,-202L366,-127Z" fill="#d4d4d4" stroke="#d4d4d4" stroke-width="1.51"/><path d="M1048,-308L956,-392L697,-252Z" fill="#e2e2e2" stroke="#e2e2e2" stroke-width="1.51"/><path d="M1360,-339L956,-392L1048,-308Z" fill="#e2e2e2" stroke="#e2e2e2" stroke-width="1.51"/><path d="M2220,1886L2342,2102L2298,1742Z" fill="#d2d2d2" stroke="#d2d2d2" stroke-width="1.51"/><path d="M2075,2109L1823,1899L1841,2158Z" fill="#d4d4d4" stroke="#d4d4d4" stroke-width="1.51"/><path d="M1761,-367L1581,-380L1660,-126Z" fill="#d3d3d3" stroke="#d3d3d3" stroke-width="1.51"/><path d="M1360,-339L1581,-380L956,-392Z" fill="#dcdcdc" stroke="#dcdcdc" stroke-width="1.51"/><path d="M2067,2226L2075,2109L1841,2158Z" fill="#d2d2d2" stroke="#d2d2d2" stroke-width="1.51"/><path d="M1928,-368L1761,-367L1881,-11Z" fill="#d1d1d1" stroke="#d1d1d1" stroke-width="1.51"/><path d="M2208,388L2271,43L2117,309Z" fill="#d3d3d3" stroke="#d3d3d3" stroke-width="1.51"/><path d="M2281,613L2271,43L2208,388Z" fill="#d4d4d4" stroke="#d4d4d4" stroke-width="1.51"/><path d="M2322,-284L2271,43L2281,613Z" fill="#d1d1d1" stroke="#d1d1d1" stroke-width="1.51"/><path d="M-71,63L-137,394L58,308Z" fill="#d2d2d2" stroke="#d2d2d2" stroke-width="1.51"/><path d="M-81,501L-315,630L-125,767Z" fill="#dcdcdc" stroke="#dcdcdc" stroke-width="1.51"/><path d="M-296,1096L-131,1265L-169,1073Z" fill="#e2e2e2" stroke="#e2e2e2" stroke-width="1.51"/><path d="M-296,1096L-240,1310L-131,1265Z" fill="#e0e0e0" stroke="#e0e0e0" stroke-width="1.51"/><path d="M-131,1265L-240,1310L-8,1536Z" fill="#dcdcdc" stroke="#dcdcdc" stroke-width="1.51"/><path d="M24,2053L276,2160L263,1788Z" fill="#d4d4d4" stroke="#d4d4d4" stroke-width="1.51"/><path d="M-296,1096L-169,1073L-347,941Z" fill="#e5e5e5" stroke="#e5e5e5" stroke-width="1.51"/><path d="M1928,-368L1881,-11L2054,-44Z" fill="#d1d1d1" stroke="#d1d1d1" stroke-width="1.51"/><path d="M366,-127L60,47L253,191Z" fill="#d3d3d3" stroke="#d3d3d3" stroke-width="1.51"/><path d="M-40,1861L193,1618L-109,1790Z" fill="#d4d4d4" stroke="#d4d4d4" stroke-width="1.51"/><path d="M601,2177L615,2380L979,2314Z" fill="#dfdfdf" stroke="#dfdfdf" stroke-width="1.51"/><path d="M530,-395L470,-54L697,-252Z" fill="#d9d9d9" stroke="#d9d9d9" stroke-width="1.51"/><path d="M366,-127L299,-202L60,47Z" fill="#d2d2d2" stroke="#d2d2d2" stroke-width="1.51"/><path d="M-347,941L-54,957L-125,767Z" fill="#e3e3e3" stroke="#e3e3e3" stroke-width="1.51"/><path d="M487,2350L615,2380L601,2177Z" fill="#dadada" stroke="#dadada" stroke-width="1.51"/><path d="M1004,2333L1970,2361L1654,2293Z" fill="#d8d8d8" stroke="#d8d8d8" stroke-width="1.51"/><path d="M-109,1790L193,1618L-8,1536Z" fill="#d6d6d6" stroke="#d6d6d6" stroke-width="1.51"/><path d="M1970,2361L2067,2226L1841,2158Z" fill="#d2d2d2" stroke="#d2d2d2" stroke-width="1.51"/><path d="M2075,2109L2342,2102L2198,1984Z" fill="#d2d2d2" stroke="#d2d2d2" stroke-width="1.51"/><path d="M2271,43L2262,-94L2054,-44Z" fill="#d1d1d1" stroke="#d1d1d1" stroke-width="1.51"/><path d="M2322,-284L2262,-94L2271,43Z" fill="#d0d0d0" stroke="#d0d0d0" stroke-width="1.51"/><path d="M-276,1648L-109,1790L-8,1536Z" fill="#d4d4d4" stroke="#d4d4d4" stroke-width="1.51"/><path d="M276,2160L487,2350L601,2177Z" fill="#d7d7d7" stroke="#d7d7d7" stroke-width="1.51"/><path d="M956,-392L530,-395L697,-252Z" fill="#dddddd" stroke="#dddddd" stroke-width="1.51"/><path d="M-315,630L-347,941L-125,767Z" fill="#dfdfdf" stroke="#dfdfdf" stroke-width="1.51"/><path d="M-358,1497L-8,1536L-240,1310Z" fill="#dadada" stroke="#dadada" stroke-width="1.51"/><path d="M-358,1497L-276,1648L-8,1536Z" fill="#d7d7d7" stroke="#d7d7d7" stroke-width="1.51"/><path d="M1761,-367L1928,-368L1581,-380Z" fill="#d1d1d1" stroke="#d1d1d1" stroke-width="1.51"/><path d="M2161,-361L1928,-368L2054,-44Z" fill="#d0d0d0" stroke="#d0d0d0" stroke-width="1.51"/><path d="M276,2160L392,2373L487,2350Z" fill="#d5d5d5" stroke="#d5d5d5" stroke-width="1.51"/><path d="M-40,1861L6,1983L263,1788Z" fill="#d3d3d3" stroke="#d3d3d3" stroke-width="1.51"/><path d="M-183,2012L6,1983L-40,1861Z" fill="#d2d2d2" stroke="#d2d2d2" stroke-width="1.51"/><path d="M-245,373L-81,501L-137,394Z" fill="#d6d6d6" stroke="#d6d6d6" stroke-width="1.51"/><path d="M-340,431L-315,630L-81,501Z" fill="#d8d8d8" stroke="#d8d8d8" stroke-width="1.51"/><path d="M-242,89L-245,373L-137,394Z" fill="#d2d2d2" stroke="#d2d2d2" stroke-width="1.51"/><path d="M60,47L-71,63L58,308Z" fill="#d2d2d2" stroke="#d2d2d2" stroke-width="1.51"/><path d="M-53,-21L-71,63L60,47Z" fill="#d1d1d1" stroke="#d1d1d1" stroke-width="1.51"/><path d="M-53,-21L60,47L5,-89Z" fill="#d1d1d1" stroke="#d1d1d1" stroke-width="1.51"/><path d="M1654,2293L1970,2361L1841,2158Z" fill="#d3d3d3" stroke="#d3d3d3" stroke-width="1.51"/><path d="M615,2380L1970,2361L1004,2333Z" fill="#e1e1e1" stroke="#e1e1e1" stroke-width="1.51"/><path d="M-183,2012L24,2053L6,1983Z" fill="#d1d1d1" stroke="#d1d1d1" stroke-width="1.51"/><path d="M6,1983L24,2053L263,1788Z" fill="#d4d4d4" stroke="#d4d4d4" stroke-width="1.51"/><path d="M76,2256L392,2373L276,2160Z" fill="#d2d2d2" stroke="#d2d2d2" stroke-width="1.51"/><path d="M487,2350L392,2373L615,2380Z" fill="#d7d7d7" stroke="#d7d7d7" stroke-width="1.51"/><path d="M2312,2355L2342,2102L2067,2226Z" fill="#d0d0d0" stroke="#d0d0d0" stroke-width="1.51"/><path d="M2067,2226L2342,2102L2075,2109Z" fill="#d1d1d1" stroke="#d1d1d1" stroke-width="1.51"/><path d="M2198,1984L2342,2102L2220,1886Z" fill="#d2d2d2" stroke="#d2d2d2" stroke-width="1.51"/><path d="M2298,1742L2342,2102L2398,1454Z" fill="#d3d3d3" stroke="#d3d3d3" stroke-width="1.51"/><path d="M-242,89L-340,431L-245,373Z" fill="#d1d1d1" stroke="#d1d1d1" stroke-width="1.51"/><path d="M5,-89L60,47L299,-202Z" fill="#d1d1d1" stroke="#d1d1d1" stroke-width="1.51"/><path d="M77,-293L5,-89L299,-202Z" fill="#d0d0d0" stroke="#d0d0d0" stroke-width="1.51"/><path d="M-358,1497L-240,1310L-296,1096Z" fill="#dddddd" stroke="#dddddd" stroke-width="1.51"/><path d="M-109,1790L-183,2012L-40,1861Z" fill="#d2d2d2" stroke="#d2d2d2" stroke-width="1.51"/><path d="M-347,941L-358,1497L-296,1096Z" fill="#e0e0e0" stroke="#e0e0e0" stroke-width="1.51"/><path d="M-347,941L-377,1889L-358,1497Z" fill="#d9d9d9" stroke="#d9d9d9" stroke-width="1.51"/><path d="M-315,630L-340,431L-347,941Z" fill="#dbdbdb" stroke="#dbdbdb" stroke-width="1.51"/><path d="M-245,373L-340,431L-81,501Z" fill="#d6d6d6" stroke="#d6d6d6" stroke-width="1.51"/><path d="M-242,89L-137,394L-71,63Z" fill="#d1d1d1" stroke="#d1d1d1" stroke-width="1.51"/><path d="M1928,-368L2161,-361L1581,-380Z" fill="#d0d0d0" stroke="#d0d0d0" stroke-width="1.51"/><path d="M2262,-94L2161,-361L2054,-44Z" fill="#d0d0d0" stroke="#d0d0d0" stroke-width="1.51"/><path d="M-72,2264L76,2256L24,2053Z" fill="#d1d1d1" stroke="#d1d1d1" stroke-width="1.51"/><path d="M24,2053L76,2256L276,2160Z" fill="#d2d2d2" stroke="#d2d2d2" stroke-width="1.51"/><path d="M-270,-22L-242,89L-71,63Z" fill="#d0d0d0" stroke="#d0d0d0" stroke-width="1.51"/><path d="M-270,-22L-71,63L-53,-21Z" fill="#d0d0d0" stroke="#d0d0d0" stroke-width="1.51"/><path d="M-83,-330L-270,-22L-53,-21Z" fill="#cfcfcf" stroke="#cfcfcf" stroke-width="1.51"/><path d="M530,-395L77,-293L299,-202Z" fill="#d1d1d1" stroke="#d1d1d1" stroke-width="1.51"/><path d="M2262,-94L2322,-284L2161,-361Z" fill="#cecece" stroke="#cecece" stroke-width="1.51"/><path d="M2374,1073L2322,-284L2281,613Z" fill="#d7d7d7" stroke="#d7d7d7" stroke-width="1.51"/><path d="M2398,1454L2322,-284L2374,1073Z" fill="#dfdfdf" stroke="#dfdfdf" stroke-width="1.51"/><path d="M-377,1889L-183,2012L-109,1790Z" fill="#d1d1d1" stroke="#d1d1d1" stroke-width="1.51"/><path d="M-377,1889L-109,1790L-276,1648Z" fill="#d2d2d2" stroke="#d2d2d2" stroke-width="1.51"/><path d="M1970,2361L2312,2355L2067,2226Z" fill="#d0d0d0" stroke="#d0d0d0" stroke-width="1.51"/><path d="M-83,-330L-53,-21L5,-89Z" fill="#d0d0d0" stroke="#d0d0d0" stroke-width="1.51"/><path d="M-242,89L-270,-22L-340,431Z" fill="#d0d0d0" stroke="#d0d0d0" stroke-width="1.51"/><path d="M-183,2012L-72,2264L24,2053Z" fill="#d1d1d1" stroke="#d1d1d1" stroke-width="1.51"/><path d="M76,2256L-72,2264L392,2373Z" fill="#d1d1d1" stroke="#d1d1d1" stroke-width="1.51"/><path d="M-183,2012L-365,2069L-72,2264Z" fill="#d0d0d0" stroke="#d0d0d0" stroke-width="1.51"/><path d="M-358,1497L-377,1889L-276,1648Z" fill="#d2d2d2" stroke="#d2d2d2" stroke-width="1.51"/><path d="M-379,-349L-377,1889L-347,941Z" fill="#e0e0e0" stroke="#e0e0e0" stroke-width="1.51"/><path d="M77,-293L-83,-330L5,-89Z" fill="#cfcfcf" stroke="#cfcfcf" stroke-width="1.51"/><path d="M530,-395L-83,-330L77,-293Z" fill="#d0d0d0" stroke="#d0d0d0" stroke-width="1.51"/><path d="M-377,1889L-365,2069L-183,2012Z" fill="#d0d0d0" stroke="#d0d0d0" stroke-width="1.51"/><path d="M-365,2069L-320,2352L-72,2264Z" fill="#cecece" stroke="#cecece" stroke-width="1.51"/><path d="M-72,2264L-320,2352L392,2373Z" fill="#d0d0d0" stroke="#d0d0d0" stroke-width="1.51"/><path d="M392,2373L-320,2352L615,2380Z" fill="#d1d1d1" stroke="#d1d1d1" stroke-width="1.51"/><path d="M-83,-330L-379,-349L-270,-22Z" fill="#cdcdcd" stroke="#cdcdcd" stroke-width="1.51"/><path d="M-270,-22L-379,-349L-340,431Z" fill="#cfcfcf" stroke="#cfcfcf" stroke-width="1.51"/><path d="M-340,431L-379,-349L-347,941Z" fill="#d2d2d2" stroke="#d2d2d2" stroke-width="1.51"/><path d="M530,-395L-379,-349L-83,-330Z" fill="#cfcfcf" stroke="#cfcfcf" stroke-width="1.51"/></svg>