<?xml version="1.0" encoding="utf-8"?>
<!-- Generator: Adobe Illustrator 21.1.0, SVG Export Plug-In . SVG Version: 6.00 Build 0)  -->
<svg version="1.1" id="Layer_1" xmlns="http://www.w3.org/2000/svg" xmlns:xlink="http://www.w3.org/1999/xlink" x="0px" y="0px"
	 viewBox="0 0 1416 470" style="enable-background:new 0 0 1416 470;" xml:space="preserve">
<style type="text/css">
	.st0{enable-background:new    ;}
</style>
<g id="logo">
	<polygon points="50.1,396.2 50.1,93 140.1,295.8 140.1,396.2 	"/>
	<polygon points="50.1,93 140.1,93 219.4,255.2 176.6,351.9 	"/>
	<polygon points="176.6,351.9 303.2,93 393.2,93 266.7,351.9 	"/>
	<polygon points="303.2,396.2 303.2,295.8 393.2,93 393.2,396.2 	"/>
</g>
<g class="st0">
	<path d="M503.7,188.9h21.4l33.7,80.4h0.6l33.4-80.4h21.4v106.2H600v-87.3h-0.3l-35.8,87.3h-9.6l-35.8-87.3h-0.3v87.3h-14.4V188.9z"
		/>
	<path d="M637.5,232.7c7.5-7,18.3-10.5,28.2-10.5c21,0,29.7,11.4,29.7,23.7v36.3c0,5,0.1,9.1,0.6,12.9h-12
		c-0.3-3.6-0.5-7.2-0.5-10.8h-0.3c-6,9.1-14.1,12.6-24.9,12.6c-13.2,0-24.6-7.5-24.6-21.3c0-18.3,17.5-24.6,39.1-24.6h9.9v-3
		c0-7.4-5.4-15-16.9-15c-10.3,0-15.3,4.3-20.2,8.1L637.5,232.7z M675.6,260.9c-12.7,0-28.3,2.3-28.3,13.6c0,8.1,6,11.5,15.3,11.5
		c15,0,20.2-11.1,20.2-20.7v-4.5H675.6z"/>
	<path d="M752.8,241.8c-3.2-3.9-7.8-7-14.5-7c-6.3,0-11.8,2.9-11.8,8c0,8.5,12.1,9.7,18.1,11.1c11.7,2.8,20.7,7.3,20.7,20.7
		c0,16-14.7,22.3-28.8,22.3c-11.7,0-20.4-3-27.4-12.6l10.2-8.4c4.3,4.3,9.5,8.4,17.2,8.4c6.9,0,14.4-2.8,14.4-9
		c0-8.1-11.3-9.6-17.1-11c-11.5-2.8-21.8-6.6-21.8-20.2c0-14.8,13.7-21.9,27-21.9c9.4,0,19.2,3.3,24.3,11.7L752.8,241.8z"/>
	<path d="M819.4,241.8c-3.2-3.9-7.8-7-14.5-7c-6.3,0-11.8,2.9-11.8,8c0,8.5,12.1,9.7,18.1,11.1c11.7,2.8,20.7,7.3,20.7,20.7
		c0,16-14.7,22.3-28.8,22.3c-11.7,0-20.4-3-27.4-12.6l10.2-8.4c4.3,4.3,9.5,8.4,17.2,8.4c6.9,0,14.4-2.8,14.4-9
		c0-8.1-11.3-9.6-17.1-11c-11.5-2.8-21.8-6.6-21.8-20.2c0-14.8,13.7-21.9,27-21.9c9.4,0,19.2,3.3,24.3,11.7L819.4,241.8z"/>
	<path d="M858.4,264.5c0,12.4,11.5,20.7,24,20.7c8.3,0,14.3-4.2,19.5-10.6l10.2,7.8c-7.5,9.7-17.8,14.5-31.5,14.5
		c-22.5,0-36.6-16.2-36.6-37.3c0-21.3,15.4-37.3,36.7-37.3c25,0,34.6,19.2,34.6,37.5v4.8H858.4z M901,253.7
		c-0.3-11.8-6.9-20.7-20.5-20.7c-13.3,0-22,11.3-22,20.7H901z"/>
	<path d="M923.1,224h15.6l21.1,55.5h0.3l20.1-55.5h14.5L961,310.4c-4.8,12.3-9.5,20.7-24.3,20.7c-4,0-8.2-0.4-12-1.9l1.6-12.3
		c2.6,1,5.4,1.7,8.1,1.7c8.6,0,11.1-4.7,13.8-11.7l4.3-11.2L923.1,224z"/>
	<path d="M1010.1,188.9h14.4V233h55v-44.1h14.4v106.2h-14.4v-48.6h-55v48.6h-14.4V188.9z"/>
	<path d="M1118.1,232.7c7.5-7,18.3-10.5,28.2-10.5c21,0,29.7,11.4,29.7,23.7v36.3c0,5,0.2,9.1,0.6,12.9h-12
		c-0.3-3.6-0.4-7.2-0.4-10.8h-0.3c-6,9.1-14.1,12.6-24.9,12.6c-13.2,0-24.6-7.5-24.6-21.3c0-18.3,17.5-24.6,39.1-24.6h9.9v-3
		c0-7.4-5.4-15-16.9-15c-10.3,0-15.3,4.3-20.3,8.1L1118.1,232.7z M1156.2,260.9c-12.8,0-28.3,2.3-28.3,13.6c0,8.1,6,11.5,15.3,11.5
		c15,0,20.3-11.1,20.3-20.7v-4.5H1156.2z"/>
	<path d="M1246.5,242.9c-5-5.2-10.2-7.9-17.7-7.9c-14.7,0-22.2,11.8-22.2,25.2c0,13.3,9,24.1,22.9,24.1c7.5,0,12.7-2.7,17.2-7.9
		l9.6,9.6c-7,7.8-16.6,10.9-27,10.9c-21.9,0-37.2-15.1-37.2-37c0-21.9,15-37.5,37.2-37.5c10.3,0,20.2,3.6,27.3,11.3L1246.5,242.9z"
		/>
	<path d="M1267.9,181.7h13.5v73.2l30.6-30.7h18.8l-33.1,32.2l36,38.7h-19.2l-33-36.9v36.9h-13.5V181.7z"/>
	<path d="M1383.6,241.8c-3.2-3.9-7.8-7-14.5-7c-6.3,0-11.8,2.9-11.8,8c0,8.5,12.1,9.7,18.1,11.1c11.7,2.8,20.7,7.3,20.7,20.7
		c0,16-14.7,22.3-28.8,22.3c-11.7,0-20.4-3-27.4-12.6l10.2-8.4c4.3,4.3,9.5,8.4,17.3,8.4c6.9,0,14.4-2.8,14.4-9
		c0-8.1-11.3-9.6-17.1-11c-11.5-2.8-21.7-6.6-21.7-20.2c0-14.8,13.6-21.9,27-21.9c9.5,0,19.2,3.3,24.3,11.7L1383.6,241.8z"/>
</g>
</svg>
